<?xml version="1.0" encoding="UTF-8"?>
<svg xmlns="http://www.w3.org/2000/svg" style="display:none">
  <symbol id="dexterity_icon" viewBox="0 0 16 16">
    <path d="M1 5h1v1h-1v-1Z" fill="#3d4852" fill-rule="evenodd" />
    <path d="M1 7h1v1h-1v-1Z" fill="#3d4852" fill-rule="evenodd" />
    <path d="M2 3h1v2h-1v-2Z" fill="#3d4852" fill-rule="evenodd" />
    <path d="M2 6h1v1h-1v-1Z" fill="#3d4852" fill-rule="evenodd" />
    <path d="M2 8h1v1h-1v-1Z" fill="#3d4852" fill-rule="evenodd" />
    <path d="M3 5h1v1h-1v-1Z" fill="#3d4852" fill-rule="evenodd" />
    <path d="M4 6h1v1h-1v-1Z" fill="#3d4852" fill-rule="evenodd" />
    <path d="M4 8h1v1h-1v-1Z" fill="#3d4852" fill-rule="evenodd" />
    <path d="M4 12h1v1h-1v-1Z" fill="#3d4852" fill-rule="evenodd" />
    <path d="M5 2h1v1h-1v-1Z" fill="#3d4852" fill-rule="evenodd" />
    <path d="M5 9h1v1h-1v-1Z" fill="#3d4852" fill-rule="evenodd" />
    <path d="M5 13h1v1h-1v-1Z" fill="#3d4852" fill-rule="evenodd" />
    <path d="M6 4h1v1h-1v-1Z" fill="#3d4852" fill-rule="evenodd" />
    <path d="M7 11h3v2h-1v-1h-2v-1Z" fill="#3d4852" fill-rule="evenodd" />
    <path d="M8 3h1v1h-1v-1Z" fill="#3d4852" fill-rule="evenodd" />
    <path d="M8 6h1v1h-1v-1Z" fill="#3d4852" fill-rule="evenodd" />
    <path d="M9 8h1v1h-1v-1Z" fill="#3d4852" fill-rule="evenodd" />
    <path d="M10 4h1v1h-1v-1Z" fill="#3d4852" fill-rule="evenodd" />
    <path d="M10 10h1v1h-1v-1Z" fill="#3d4852" fill-rule="evenodd" />
    <path d="M11 11h1v1h-1v-1Z" fill="#3d4852" fill-rule="evenodd" />
    <path d="M11 13h1v1h-1v-1Z" fill="#3d4852" fill-rule="evenodd" />
    <path d="M12 3h1v1h-1v-1Z" fill="#3d4852" fill-rule="evenodd" />
    <path d="M13 7h1v1h-1v-1Z" fill="#3d4852" fill-rule="evenodd" />
    <path d="M13 12h1v1h-1v-1Z" fill="#3d4852" fill-rule="evenodd" />
    <path d="M14 9h1v1h-1v-1Z" fill="#3d4852" fill-rule="evenodd" />
    <path d="M15 5h1v1h-1v-1Z" fill="#3d4852" fill-rule="evenodd" />
    <path d="M1 6h1v1h-1v-1Z" fill="#557875" fill-rule="evenodd" />
    <path d="M2 7h1v1h-1v-1Z" fill="#557875" fill-rule="evenodd" />
    <path d="M3 2h1v2h1v-1h1v3h-2v-1h-1v-3Z" fill="#557875" fill-rule="evenodd" />
    <path d="M3 8h1v1h-1v-1Z" fill="#557875" fill-rule="evenodd" />
    <path d="M4 10h1v1h1v2h-1v-1h-1v-2Z" fill="#557875" fill-rule="evenodd" />
    <path d="M5 8h2v1h1v1h1v-1h1v2h-3v-1h-1v-1h-1v-1Z" fill="#557875" fill-rule="evenodd" />
    <path d="M6 13h1v1h-1v-1Z" fill="#557875" fill-rule="evenodd" />
    <path d="M7 4h1v1h-1v-1Z" fill="#557875" fill-rule="evenodd" />
    <path d="M7 6h1v1h-1v-1Z" fill="#557875" fill-rule="evenodd" />
    <path d="M8 5h1v1h-1v-1Z" fill="#557875" fill-rule="evenodd" />
    <path d="M8 7h1v1h-1v-1Z" fill="#557875" fill-rule="evenodd" />
    <path d="M9 3h3v1h-2v1h-1v-2Z" fill="#557875" fill-rule="evenodd" />
    <path d="M10 7h3v1h-3v-1Z" fill="#557875" fill-rule="evenodd" />
    <path d="M10 11h1v1h2v1h2v1h-3v-1h-2v-2Z" fill="#557875" fill-rule="evenodd" />
    <path d="M11 5h4v1h-4v-1Z" fill="#557875" fill-rule="evenodd" />
    <path d="M12 9h2v1h-2v-1Z" fill="#557875" fill-rule="evenodd" />
    <path d="M3 7h2v-1h1v-1h2v1h-1v1h1v1h1v2h-1v-1h-1v-1h-4v-1Z" fill="#639b8e" fill-rule="evenodd" />
    <path d="M4 2h1v2h-1v-2Z" fill="#639b8e" fill-rule="evenodd" />
    <path d="M5 10h2v1h-2v-1Z" fill="#639b8e" fill-rule="evenodd" />
    <path d="M8 4h1v1h-1v-1Z" fill="#639b8e" fill-rule="evenodd" />
  </symbol>
  <symbol id="endurance_icon" viewBox="0 0 16 16">
    <path d="M1 5h1v-1h2v1h1v1h-2v1h-2v-2Z" fill="#712a37" fill-rule="evenodd" />
    <path d="M3 2h1v1h-1v-1Z" fill="#712a37" fill-rule="evenodd" />
    <path d="M3 10h1v1h-1v-1Z" fill="#712a37" fill-rule="evenodd" />
    <path d="M4 3h1v1h-1v-1Z" fill="#712a37" fill-rule="evenodd" />
    <path d="M4 11h1v1h-1v-1Z" fill="#712a37" fill-rule="evenodd" />
    <path d="M5 2h1v-1h1v2h1v-1h1v-1h2v1h-1v1h-1v1h-3v-1h-1v-1Z" fill="#712a37" fill-rule="evenodd" />
    <path d="M5 4h1v1h-1v-1Z" fill="#712a37" fill-rule="evenodd" />
    <path d="M5 12h1v1h-1v-1Z" fill="#712a37" fill-rule="evenodd" />
    <path d="M7 13h1v1h-1v-1Z" fill="#712a37" fill-rule="evenodd" />
    <path d="M9 14h2v-2h-1v-2h1v-3h-1v-2h1v1h1v1h1v4h-1v1h1v2h-1v1h-3v-1Z" fill="#712a37" fill-rule="evenodd" />
    <path d="M11 2h1v1h-1v-1Z" fill="#712a37" fill-rule="evenodd" />
    <path d="M13 3h1v2h-1v-2Z" fill="#712a37" fill-rule="evenodd" />
    <path d="M3 7h1v-1h1v-1h1v1h1v-1h1v-1h1v-1h2v1h2v1h-4v1h1v1h1v2h-1v-1h-1v1h1v3h1v2h-3v-1h-2v-1h-1v-1h-1v-1h-1v-3ZM5 8v1h1v-1h1v2h1v-3h1v-1h-1v1h-2v1h-1ZM6 10v1h1v-1h-1Z" fill="#a04b4b" fill-rule="evenodd" />
    <path d="M4 2h1v1h-1v-1Z" fill="#a04b4b" fill-rule="evenodd" />
    <path d="M5 3h1v1h-1v-1Z" fill="#a04b4b" fill-rule="evenodd" />
    <path d="M6 4h1v1h-1v-1Z" fill="#a04b4b" fill-rule="evenodd" />
    <path d="M12 2h2v1h-2v-1Z" fill="#a04b4b" fill-rule="evenodd" />
    <path d="M5 8h1v1h-1v-1Z" fill="#c26767" fill-rule="evenodd" />
    <path d="M6 5h1v1h-1v-1Z" fill="#c26767" fill-rule="evenodd" />
    <path d="M6 7h2v3h-1v-2h-1v-1Z" fill="#c26767" fill-rule="evenodd" />
    <path d="M6 10h1v1h-1v-1Z" fill="#c26767" fill-rule="evenodd" />
    <path d="M7 4h1v1h-1v-1Z" fill="#c26767" fill-rule="evenodd" />
    <path d="M8 6h1v1h-1v-1Z" fill="#c26767" fill-rule="evenodd" />
    <path d="M9 5h1v1h-1v-1Z" fill="#c26767" fill-rule="evenodd" />
    <path d="M9 8h1v1h-1v-1Z" fill="#c26767" fill-rule="evenodd" />
    <path d="M10 9h1v1h-1v-1Z" fill="#c26767" fill-rule="evenodd" />
    <path d="M11 3h2v1h-2v-1Z" fill="#c26767" fill-rule="evenodd" />
  </symbol>
  <symbol id="intelligence_icon" viewBox="0 0 16 16">
    <path d="M2 3h1v6h-1v-6Z" fill="#4d4539" fill-rule="evenodd" />
    <path d="M3 2h1v1h-1v-1Z" fill="#4d4539" fill-rule="evenodd" />
    <path d="M3 9h1v1h-1v-1Z" fill="#4d4539" fill-rule="evenodd" />
    <path d="M4 1h8v1h-8v-1Z" fill="#4d4539" fill-rule="evenodd" />
    <path d="M4 10h1v5h3v-1h1v2h-5v-6Z" fill="#4d4539" fill-rule="evenodd" />
    <path d="M9 13h4v1h-4v-1Z" fill="#4d4539" fill-rule="evenodd" />
    <path d="M12 2h1v1h-1v-1Z" fill="#4d4539" fill-rule="evenodd" />
    <path d="M13 3h1v5h-1v-5Z" fill="#4d4539" fill-rule="evenodd" />
    <path d="M13 10h1v3h-1v-3Z" fill="#4d4539" fill-rule="evenodd" />
    <path d="M14 8h1v2h-1v-2Z" fill="#4d4539" fill-rule="evenodd" />
    <path d="M4 4h1v1h-1v-1Z" fill="#77743b" fill-rule="evenodd" />
    <path d="M4 7h1v1h-1v-1Z" fill="#77743b" fill-rule="evenodd" />
    <path d="M5 3h1v1h-1v-1Z" fill="#77743b" fill-rule="evenodd" />
    <path d="M5 8h1v1h-1v-1Z" fill="#77743b" fill-rule="evenodd" />
    <path d="M6 7h1v1h-1v-1Z" fill="#77743b" fill-rule="evenodd" />
    <path d="M7 8h1v1h-1v-1Z" fill="#77743b" fill-rule="evenodd" />
    <path d="M10 3h1v1h-1v-1Z" fill="#77743b" fill-rule="evenodd" />
    <path d="M11 4h1v1h-1v-1Z" fill="#77743b" fill-rule="evenodd" />
    <path d="M11 6h1v1h-1v-1Z" fill="#77743b" fill-rule="evenodd" />
    <path d="M4 5h1v-1h1v-1h4v1h1v1h1v1h-1v1h-5v1h-1v-1h-1v-2Z" fill="#b3a555" fill-rule="evenodd" />
    <path d="M6 8h1v1h-1v-1Z" fill="#b3a555" fill-rule="evenodd" />
  </symbol>
  <symbol id="leadership_icon" viewBox="0 0 16 16">
    <path d="M6 3h1v1h-1v-1Z" fill="#100b12" fill-rule="evenodd" />
    <path d="M7 5h2v1h-2v-1Z" fill="#100b12" fill-rule="evenodd" />
    <path d="M10 5h1v1h-1v-1Z" fill="#100b12" fill-rule="evenodd" />
    <path d="M2 10h1v1h-1v-1Z" fill="#4a4961" fill-rule="evenodd" />
    <path d="M3 11h1v1h-1v-1Z" fill="#4a4961" fill-rule="evenodd" />
    <path d="M3 14h2v1h-2v-1Z" fill="#4a4961" fill-rule="evenodd" />
    <path d="M4 10h1v1h-1v-1Z" fill="#4a4961" fill-rule="evenodd" />
    <path d="M5 3h1v1h-1v-1Z" fill="#4a4961" fill-rule="evenodd" />
    <path d="M6 1h1v1h-1v-1Z" fill="#4a4961" fill-rule="evenodd" />
    <path d="M6 4h1v1h-1v-1Z" fill="#4a4961" fill-rule="evenodd" />
    <path d="M6 6h1v1h-1v-1Z" fill="#4a4961" fill-rule="evenodd" />
    <path d="M7 7h1v2h-1v-2Z" fill="#4a4961" fill-rule="evenodd" />
    <path d="M7 13h3v1h-3v-1Z" fill="#4a4961" fill-rule="evenodd" />
    <path d="M8 1h1v1h-1v-1Z" fill="#4a4961" fill-rule="evenodd" />
    <path d="M8 4h1v1h-1v-1Z" fill="#4a4961" fill-rule="evenodd" />
    <path d="M9 5h1v1h-1v-1Z" fill="#4a4961" fill-rule="evenodd" />
    <path d="M9 7h1v1h-1v-1Z" fill="#4a4961" fill-rule="evenodd" />
    <path d="M10 2h1v1h-1v-1Z" fill="#4a4961" fill-rule="evenodd" />
    <path d="M10 4h1v1h-1v-1Z" fill="#4a4961" fill-rule="evenodd" />
    <path d="M12 9h1v1h-1v-1Z" fill="#4a4961" fill-rule="evenodd" />
    <path d="M12 14h2v1h-2v-1Z" fill="#4a4961" fill-rule="evenodd" />
    <path d="M13 10h1v1h-1v-1Z" fill="#4a4961" fill-rule="evenodd" />
    <path d="M14 9h1v1h-1v-1Z" fill="#4a4961" fill-rule="evenodd" />
    <path d="M2 8h1v1h-1v-1Z" fill="#526178" fill-rule="evenodd" />
    <path d="M3 10h1v1h-1v-1Z" fill="#526178" fill-rule="evenodd" />
    <path d="M3 12h1v-1h1v3h-2v-2Z" fill="#526178" fill-rule="evenodd" />
    <path d="M4 9h1v1h-1v-1Z" fill="#526178" fill-rule="evenodd" />
    <path d="M5 4h1v1h1v1h-2v-2Z" fill="#526178" fill-rule="evenodd" />
    <path d="M6 2h1v1h-1v-1Z" fill="#526178" fill-rule="evenodd" />
    <path d="M7 3h1v-1h1v2h-1v1h-1v-2Z" fill="#526178" fill-rule="evenodd" />
    <path d="M7 6h3v1h-1v1h1v5h-3v-4h1v-2h-1v-1Z" fill="#526178" fill-rule="evenodd" />
    <path d="M9 4h1v1h-1v-1Z" fill="#526178" fill-rule="evenodd" />
    <path d="M10 3h1v1h-1v-1Z" fill="#526178" fill-rule="evenodd" />
    <path d="M12 8h1v1h-1v-1Z" fill="#526178" fill-rule="evenodd" />
    <path d="M12 10h1v1h1v3h-2v-4Z" fill="#526178" fill-rule="evenodd" />
    <path d="M13 9h1v1h-1v-1Z" fill="#526178" fill-rule="evenodd" />
    <path d="M14 7h1v1h-1v-1Z" fill="#526178" fill-rule="evenodd" />
    <path d="M2 9h1v-1h2v1h-1v1h-2v-1Z" fill="#92969c" fill-rule="evenodd" />
    <path d="M5 2h1v1h-1v-1Z" fill="#92969c" fill-rule="evenodd" />
    <path d="M7 1h1v2h-1v-2Z" fill="#92969c" fill-rule="evenodd" />
    <path d="M9 2h1v2h-1v-2Z" fill="#92969c" fill-rule="evenodd" />
    <path d="M12 7h2v1h1v1h-2v-1h-1v-1Z" fill="#92969c" fill-rule="evenodd" />
  </symbol>
  <symbol id="speed_icon" viewBox="0 0 16 16">
    <path d="M1 2h1v1h-1v-1Z" fill="#303645" fill-rule="evenodd" />
    <path d="M2 6h1v1h-1v-1Z" fill="#303645" fill-rule="evenodd" />
    <path d="M3 4h1v1h-1v-1Z" fill="#303645" fill-rule="evenodd" />
    <path d="M3 10h1v2h-1v-2Z" fill="#303645" fill-rule="evenodd" />
    <path d="M4 9h1v1h-1v-1Z" fill="#303645" fill-rule="evenodd" />
    <path d="M5 8h1v1h-1v-1Z" fill="#303645" fill-rule="evenodd" />
    <path d="M5 12h1v1h-1v-1Z" fill="#303645" fill-rule="evenodd" />
    <path d="M6 1h1v1h-1v-1Z" fill="#303645" fill-rule="evenodd" />
    <path d="M6 6h1v1h-1v-1Z" fill="#303645" fill-rule="evenodd" />
    <path d="M7 2h1v1h-1v-1Z" fill="#303645" fill-rule="evenodd" />
    <path d="M8 9h1v1h-1v-1Z" fill="#303645" fill-rule="evenodd" />
    <path d="M8 13h1v1h-1v-1Z" fill="#303645" fill-rule="evenodd" />
    <path d="M9 7h1v2h-1v-2Z" fill="#303645" fill-rule="evenodd" />
    <path d="M9 10h1v1h-1v-1Z" fill="#303645" fill-rule="evenodd" />
    <path d="M10 6h1v1h-1v-1Z" fill="#303645" fill-rule="evenodd" />
    <path d="M10 11h1v1h-1v-1Z" fill="#303645" fill-rule="evenodd" />
    <path d="M12 5h1v1h-1v-1Z" fill="#303645" fill-rule="evenodd" />
    <path d="M12 12h1v1h-1v-1Z" fill="#303645" fill-rule="evenodd" />
    <path d="M13 4h1v1h-1v-1Z" fill="#303645" fill-rule="evenodd" />
    <path d="M13 13h1v1h-1v-1Z" fill="#303645" fill-rule="evenodd" />
    <path d="M14 2h1v1h-1v-1Z" fill="#303645" fill-rule="evenodd" />
    <path d="M2 2h4v1h-4v-1Z" fill="#6a4873" fill-rule="evenodd" />
    <path d="M3 6h2v1h-2v-1Z" fill="#6a4873" fill-rule="evenodd" />
    <path d="M4 4h2v1h-2v-1Z" fill="#6a4873" fill-rule="evenodd" />
    <path d="M4 10h1v-1h1v-2h1v-4h1v-1h-1v-1h2v1h1v1h1v1h-1v1h-1v1h1v1h-1v2h-1v-1h-1v1h1v1h1v1h1v2h3v1h-4v-1h-3v-1h-2v-2Z" fill="#6a4873" fill-rule="evenodd" />
    <path d="M10 5h2v1h-2v-1Z" fill="#6a4873" fill-rule="evenodd" />
    <path d="M11 2h3v2h-1v1h-1v-2h-1v-1Z" fill="#6a4873" fill-rule="evenodd" />
    <path d="M14 1h1v1h-1v-1Z" fill="#6a4873" fill-rule="evenodd" />
    <path d="M7 8h1v1h-1v-1Z" fill="#a86f8e" fill-rule="evenodd" />
    <path d="M9 1h5v1h-3v1h-1v-1h-1v-1Z" fill="#a86f8e" fill-rule="evenodd" />
    <path d="M9 5h1v1h-1v-1Z" fill="#a86f8e" fill-rule="evenodd" />
    <path d="M10 4h1v-1h1v2h-2v-1Z" fill="#a86f8e" fill-rule="evenodd" />
    <path d="M10 12h2v1h-2v-1Z" fill="#a86f8e" fill-rule="evenodd" />
  </symbol>
  <symbol id="strength_icon" viewBox="0 0 16 16">
    <path d="M1 8h1v1h-1v-1Z" fill="#824239" fill-rule="evenodd" />
    <path d="M1 13h1v1h-1v-1Z" fill="#824239" fill-rule="evenodd" />
    <path d="M2 4h1v1h-1v-1Z" fill="#824239" fill-rule="evenodd" />
    <path d="M3 2h1v1h-1v-1Z" fill="#824239" fill-rule="evenodd" />
    <path d="M4 1h1v1h-1v-1Z" fill="#824239" fill-rule="evenodd" />
    <path d="M4 4h2v2h-1v-1h-1v-1Z" fill="#824239" fill-rule="evenodd" />
    <path d="M4 14h1v1h-1v-1Z" fill="#824239" fill-rule="evenodd" />
    <path d="M5 8h1v1h-1v-1Z" fill="#824239" fill-rule="evenodd" />
    <path d="M5 11h1v1h-1v-1Z" fill="#824239" fill-rule="evenodd" />
    <path d="M6 10h1v1h-1v-1Z" fill="#824239" fill-rule="evenodd" />
    <path d="M7 4h1v1h-1v-1Z" fill="#824239" fill-rule="evenodd" />
    <path d="M7 14h1v1h-1v-1Z" fill="#824239" fill-rule="evenodd" />
    <path d="M8 1h1v1h-1v-1Z" fill="#824239" fill-rule="evenodd" />
    <path d="M8 3h1v1h-1v-1Z" fill="#824239" fill-rule="evenodd" />
    <path d="M8 9h1v1h-1v-1Z" fill="#824239" fill-rule="evenodd" />
    <path d="M11 9h1v1h-1v-1Z" fill="#824239" fill-rule="evenodd" />
    <path d="M11 11h1v-1h1v2h-2v-1Z" fill="#824239" fill-rule="evenodd" />
    <path d="M11 14h1v1h-1v-1Z" fill="#824239" fill-rule="evenodd" />
    <path d="M14 10h1v1h-1v-1Z" fill="#824239" fill-rule="evenodd" />
    <path d="M14 13h1v1h-1v-1Z" fill="#824239" fill-rule="evenodd" />
    <path d="M1 9h1v1h-1v-1Z" fill="#b57c50" fill-rule="evenodd" />
    <path d="M1 11h1v1h2v-1h-1v-3h-1v-3h3v4h1v2h1v1h3v-1h1v1h2v-1h2v2h-1v1h-3v1h-3v-1h-4v1h-2v-2h-1v-2ZM5 11v1h1v-1h-1Z" fill="#b57c50" fill-rule="evenodd" />
    <path d="M3 3h1v-1h1v1h1v-1h1v-1h1v1h1v1h-1v1h-1v1h-1v-1h-3v-1Z" fill="#b57c50" fill-rule="evenodd" />
    <path d="M5 1h1v1h-1v-1Z" fill="#b57c50" fill-rule="evenodd" />
    <path d="M7 10h1v1h-1v-1Z" fill="#b57c50" fill-rule="evenodd" />
    <path d="M9 9h2v1h-2v-1Z" fill="#b57c50" fill-rule="evenodd" />
    <path d="M11 10h1v1h-1v-1Z" fill="#b57c50" fill-rule="evenodd" />
    <path d="M1 10h1v-2h1v3h1v1h-2v-1h-1v-1Z" fill="#bf9677" fill-rule="evenodd" />
    <path d="M3 4h1v1h-1v-1Z" fill="#bf9677" fill-rule="evenodd" />
    <path d="M5 2h1v1h-1v-1Z" fill="#bf9677" fill-rule="evenodd" />
    <path d="M6 1h1v1h-1v-1Z" fill="#bf9677" fill-rule="evenodd" />
    <path d="M7 11h1v-1h3v1h-1v1h-3v-1Z" fill="#bf9677" fill-rule="evenodd" />
  </symbol>
</svg>